<!DOCTYPE svg PUBLIC "-//W3C//DTD SVG 1.1//EN" "http://www.w3.org/Graphics/SVG/1.1/DTD/svg11.dtd">
<svg id="Layer_1" data-name="Layer 1" xmlns="http://www.w3.org/2000/svg" viewBox="0 0 242.7 66.7"><defs><style>.cls-1{isolation:isolate;}</style></defs><title>logo</title><g class="cls-1"><path d="M46.5,12.2V65.9h-.3L10.1,33.3l.2,30.5L0,63.9V10.3H.4l36,33-.2-31.1Z" transform="translate(0 0.8)"/><path d="M60.2,24.9a27,27,0,0,1,9.6-9.7,25.63,25.63,0,0,1,26.2,0,27.32,27.32,0,0,1,9.7,9.7,25.82,25.82,0,0,1,0,26.3A27,27,0,0,1,96,60.8a25.08,25.08,0,0,1-13.1,3.6,26.05,26.05,0,0,1-13.2-3.5,26.77,26.77,0,0,1-9.6-9.6,25.09,25.09,0,0,1-3.5-13.2A25.69,25.69,0,0,1,60.2,24.9Zm9.1,21.4a16.68,16.68,0,0,0,5.8,6,15.52,15.52,0,0,0,8.2,2.2,14.49,14.49,0,0,0,7.9-2.2,16.15,16.15,0,0,0,5.6-6,16.71,16.71,0,0,0,2-8.3,16.89,16.89,0,0,0-2.1-8.4,16.41,16.41,0,0,0-5.7-6,15.65,15.65,0,0,0-16,0,16.41,16.41,0,0,0-5.7,6A16.89,16.89,0,0,0,67.2,38,14.91,14.91,0,0,0,69.3,46.3Z" transform="translate(0 0.8)"/><path d="M154.6,12v9.8h-25v11h22.1v9.8H129.6V53.7h26v9.8l-36.2.1V12ZM139.7,8.7h-6l5.5-9.5h10.9Z" transform="translate(0 0.8)"/><path d="M219.2,9.8V63.5H209V38.9L192.2,62.8h-.1L175.9,40.5V63.6h-9.8V9.9h.1L192.3,47,219.1,9.9h.1Z" transform="translate(0 0.8)"/><path d="M242.7,11.9V63.5H232.5V11.9Z" transform="translate(0 0.8)"/></g></svg>